<svg width="150" height="125" viewBox="0 0 150 125" fill="none" xmlns="http://www.w3.org/2000/svg">
<path d="M94.3934 11.4409C93.5203 9.99201 92.5092 8.64309 91.3603 7.34413C89.66 5.54557 87.7758 3.99681 85.7537 2.84772C84.5589 2.14828 83.3181 1.59872 82.0313 1.14908C79.8254 0.399682 77.4357 0 75.046 0C63.3273 0 53.4927 9.49241 52.114 22.0823C51.9762 23.1815 52.7115 24.1807 53.7225 24.3305C54.7335 24.4305 55.6526 23.6811 55.7905 22.5819C56.9394 12.0404 65.2115 4.09673 75.0001 4.09673C77.4357 4.09673 79.7795 4.59632 81.9854 5.4956C83.2721 6.04516 84.5129 6.74461 85.7078 7.59393C86.7648 8.34333 87.7758 9.24261 88.6949 10.2418C92.3714 14.1887 94.3475 19.4844 94.3475 25.0799C94.3475 26.1791 95.1747 27.0783 96.1857 27.0783C97.1967 27.0783 98.0239 26.1791 98.0239 25.0799C98.1159 20.1339 96.8291 15.4876 94.3934 11.4409Z" fill="url(#paint0_linear_65_99)"/>
<path d="M53.7226 34.1226C54.2281 34.1226 54.6876 33.9228 55.0553 33.5231C55.4229 33.1234 55.6068 32.6238 55.6068 32.0742C55.6068 31.5247 55.4229 31.0251 55.0553 30.6254C54.6876 30.2257 54.274 30.0259 53.7226 30.0259C53.217 30.0259 52.7575 30.2257 52.3898 30.6254C52.0222 31.0251 51.8384 31.4747 51.8384 32.0742C51.8384 32.6238 52.0222 33.1234 52.3898 33.5231C52.8034 33.9228 53.217 34.1226 53.7226 34.1226Z" fill="url(#paint1_linear_65_99)"/>
<path d="M53.7226 51.3089C54.2281 51.3089 54.6876 51.109 55.0553 50.7094C55.4229 50.3097 55.6068 49.8101 55.6068 49.2605C55.6068 48.711 55.4229 48.2114 55.0553 47.8117C54.6876 47.412 54.274 47.2122 53.7226 47.2122C53.217 47.2122 52.7575 47.412 52.3898 47.8117C52.0222 48.2114 51.8384 48.661 51.8384 49.2605C51.8384 49.8101 52.0222 50.3097 52.3898 50.7094C52.8034 51.109 53.217 51.3089 53.7226 51.3089Z" fill="url(#paint2_linear_65_99)"/>
<path d="M52.436 60.2019C52.8036 60.6016 53.2632 60.8014 53.7687 60.8014C54.2742 60.8014 54.7338 60.6016 55.1014 60.2019C55.4691 59.8022 55.6529 59.3026 55.6529 58.753C55.6529 58.2035 55.4691 57.7039 55.1014 57.3042C54.7338 56.9045 54.3202 56.7546 53.7687 56.7546C53.2632 56.7546 52.8036 56.9045 52.436 57.3042C52.0683 57.7039 51.8845 58.1535 51.8845 58.753C51.8845 59.3526 52.0683 59.8022 52.436 60.2019Z" fill="url(#paint3_linear_65_99)"/>
<path d="M55.0553 39.3185C54.6876 38.9188 54.274 38.719 53.7226 38.719C53.217 38.719 52.7575 38.9188 52.3898 39.3185C52.0222 39.7182 51.8384 40.1678 51.8384 40.7674C51.8384 41.0671 51.8843 41.3169 51.9762 41.5667C52.0682 41.8165 52.206 42.0164 52.3898 42.2162C52.7575 42.6159 53.217 42.8157 53.7226 42.8157C54.2281 42.8157 54.6876 42.6159 55.0553 42.2162C55.2391 42.0164 55.377 41.8165 55.4689 41.5667C55.5608 41.3169 55.6068 41.0671 55.6068 40.7674C55.6068 40.1678 55.4229 39.7182 55.0553 39.3185Z" fill="url(#paint4_linear_65_99)"/>
<path d="M92.5551 41.7166C91.5441 41.7166 90.7168 42.6158 90.7168 43.715C90.7168 44.8141 91.5441 45.7134 92.5551 45.7134H94.4393C94.4393 45.7134 94.4393 66.3968 94.4393 66.6466C94.2095 73.641 90.8547 79.7861 85.7996 83.4332C84.6507 84.2825 83.4099 84.9819 82.0771 85.5315C79.9172 86.4308 77.5735 86.9304 75.0919 86.9304C65.2573 86.9304 56.9853 78.9867 55.8823 68.3952C55.7904 67.446 55.0551 66.7465 54.2279 66.6466H53.8143C52.8033 66.7965 52.068 67.7957 52.2058 68.8948C53.5845 81.4847 63.4191 90.9771 75.1378 90.9771C77.5735 90.9771 79.9172 90.5775 82.1231 89.8281C83.4099 89.3784 84.6507 88.8289 85.8455 88.1294C89.3841 86.131 92.3713 83.1834 94.5312 79.5363C96.783 75.7893 98.1157 71.3928 98.2076 66.6466C98.2076 66.3968 98.2076 41.7166 98.2076 41.7166H92.5551Z" fill="url(#paint5_linear_65_99)"/>
<path d="M68.1068 66.6467C68.4284 70.4936 71.4156 73.4912 75.0461 73.4912C78.6766 73.4912 81.6637 70.4936 81.9854 66.6467V45.7634H64.3384V25.0299C64.3384 18.6351 69.1178 13.4392 75.0461 13.4392C77.7115 13.4392 80.1472 14.4884 82.0314 16.237C84.2832 18.3852 85.7538 21.4828 85.7538 25.0299C85.7538 26.3789 84.559 27.428 83.2262 26.9284C82.4909 26.6287 82.0314 25.8293 82.0314 24.98C81.9854 20.8333 78.9064 17.486 75.0461 17.486C71.1858 17.486 68.0608 20.8833 68.0608 25.0299V41.6666C68.0608 41.6666 85.7078 41.6666 85.7538 41.6666C85.7538 41.6666 85.7538 66.3969 85.7538 66.6467C85.57 69.8441 84.1453 72.7418 82.0314 74.6902C80.1472 76.4388 77.7115 77.488 75.0461 77.488C69.3476 77.488 64.706 72.6419 64.3843 66.5967C64.3843 66.4468 64.3843 59.2026 64.3843 59.2026C64.3843 58.1035 65.2115 57.2042 66.2226 57.2042C67.2336 57.2042 68.0608 58.1035 68.0608 59.2026L68.1068 66.6467Z" fill="url(#paint6_linear_65_99)"/>
<path d="M13.1893 106.215H9.55881V107.964L8.73161 106.565C8.08823 106.115 6.89338 105.865 5.88235 105.865C2.71139 105.865 0 108.213 0 113.01C0 117.006 2.20588 119.554 5.65257 119.554C6.89338 119.554 7.95036 119.205 8.6397 118.655L9.55881 117.156V117.506C9.55881 118.155 9.51286 118.705 9.51286 119.205C9.42095 121.203 8.2261 122.102 6.43382 122.102C4.91728 122.102 3.9522 121.453 3.81433 120.354L3.76838 120.104H0.229779L0.275734 120.354C0.551469 123.351 2.66544 125 6.29595 125C10.3401 125 12.9595 123.002 13.0974 118.705C13.1434 117.956 13.1434 116.956 13.1434 116.107V106.215H13.1893ZM6.61764 116.856C4.91727 116.856 3.72242 115.358 3.72242 112.71C3.72242 109.812 4.96323 108.563 6.70955 108.563C8.08823 108.563 9.51286 109.562 9.51286 112.46V112.71C9.55882 115.757 8.27205 116.856 6.61764 116.856Z" fill="white"/>
<path d="M20.8183 105.865C20.083 105.865 19.2099 106.215 18.5665 106.914L17.6474 108.763V106.215H14.0168V119.604H17.6474V114.009C17.6474 110.212 18.8882 108.963 21.7374 109.163V105.965C21.4617 105.915 21.2319 105.865 20.8183 105.865Z" fill="white"/>
<path d="M34.0992 112.66C34.0992 109.063 32.0771 105.865 28.1249 105.865C24.2187 105.865 21.7371 108.913 21.7371 112.96C21.7371 117.706 24.4485 119.954 27.8951 119.954C30.8823 119.954 33.226 118.305 33.8694 115.208H30.2848C30.0551 116.457 29.2279 117.206 27.9411 117.206C26.5624 117.206 25.5514 116.457 25.3676 113.909H34.0073C34.0992 113.459 34.0992 113.01 34.0992 112.66ZM27.987 108.563C29.3198 108.563 30.147 109.562 30.3308 111.411H25.4595C25.7812 109.462 26.6543 108.563 27.987 108.563Z" fill="white"/>
<path d="M47.1507 112.66C47.1507 109.063 45.1286 105.865 41.1764 105.865C37.2702 105.865 34.7886 108.913 34.7886 112.96C34.7886 117.706 37.5 119.954 40.9467 119.954C43.9338 119.954 46.2775 118.305 46.9209 115.208H43.3364C43.1066 116.457 42.2794 117.206 40.9926 117.206C39.6139 117.206 38.6029 116.457 38.4191 113.909H47.0588C47.1507 113.459 47.1507 113.01 47.1507 112.66ZM41.0386 108.563C42.3713 108.563 43.1985 109.562 43.3823 111.411H38.511C38.8327 109.462 39.7518 108.563 41.0386 108.563Z" fill="white"/>
<path d="M59.8349 109.562C59.5592 107.214 58.0427 105.865 55.4691 105.865C54.3202 105.865 53.4471 106.115 52.6199 106.715L51.5629 108.313V106.215H47.9324V119.604H51.5629V113.409C51.5629 110.012 52.6199 108.563 54.0445 108.563C55.4691 108.563 56.1585 109.412 56.2504 110.761C56.2963 111.461 56.2963 112.11 56.2963 112.61V119.554H59.9268V111.96C59.9728 110.961 59.9268 110.262 59.8349 109.562Z" fill="white"/>
<path d="M66.0388 105.865C62.9598 105.865 60.8917 107.464 60.8917 110.112C60.8917 112.41 62.4083 113.509 64.7061 114.159C66.866 114.708 67.6473 115.258 67.6473 116.207C67.6473 117.056 66.9579 117.456 66.0848 117.456C65.0737 117.456 64.2465 116.757 63.9708 115.508H60.3862C60.7079 118.505 62.9138 120.004 66.0388 120.004C68.934 120.004 71.2778 118.705 71.2778 115.907C71.2778 113.409 69.7612 112.31 67.3715 111.661C65.1656 111.061 64.5223 110.561 64.5223 109.662C64.5223 108.963 65.0278 108.413 65.809 108.413C66.7281 108.413 67.2337 109.063 67.4634 110.162H71.048C70.7263 107.664 69.0259 105.865 66.0388 105.865Z" fill="white"/>
<path d="M83.9612 112.66C83.9612 109.063 81.9392 105.865 77.987 105.865C74.0807 105.865 71.5991 108.913 71.5991 112.96C71.5991 117.706 74.3105 119.954 77.7572 119.954C80.7443 119.954 83.0881 118.305 83.7315 115.208H80.1469C79.9171 116.457 79.0899 117.206 77.8032 117.206C76.4245 117.206 75.4135 116.457 75.2296 113.909H83.8693C83.9612 113.459 83.9612 113.01 83.9612 112.66ZM77.8491 108.563C79.1818 108.563 80.009 109.562 80.1928 111.411H75.3215C75.6432 109.462 76.5164 108.563 77.8491 108.563Z" fill="white"/>
<path d="M96.4616 109.562C96.1859 107.214 94.6693 105.865 92.0958 105.865C90.9469 105.865 90.0737 106.115 89.2465 106.715L88.2355 108.313V106.215H84.605V119.604H88.2355V113.409C88.2355 110.012 89.2925 108.563 90.7171 108.563C92.1417 108.563 92.8311 109.412 92.923 110.761C92.9689 111.461 92.9689 112.11 92.9689 112.61V119.554H96.5995V111.96C96.5535 110.961 96.5535 110.262 96.4616 109.562Z" fill="white"/>
<path d="M102.574 105.865C99.4947 105.865 97.4266 107.464 97.4266 110.112C97.4266 112.41 98.9432 113.509 101.241 114.159C103.401 114.708 104.182 115.258 104.182 116.207C104.182 117.056 103.493 117.456 102.62 117.456C101.609 117.456 100.781 116.757 100.506 115.508H96.9211C97.2428 118.505 99.4487 120.004 102.574 120.004C105.469 120.004 107.813 118.705 107.813 115.907C107.813 113.409 106.296 112.31 103.906 111.661C101.701 111.061 101.057 110.561 101.057 109.662C101.057 108.963 101.563 108.413 102.344 108.413C103.263 108.413 103.769 109.063 103.998 110.162H107.583C107.307 107.664 105.561 105.865 102.574 105.865Z" fill="white"/>
<path d="M110.202 101.019C109.053 101.019 108.272 101.818 108.272 103.017C108.272 104.266 109.053 105.016 110.202 105.016C111.351 105.016 112.132 104.216 112.132 103.017C112.132 101.818 111.351 101.019 110.202 101.019ZM111.994 119.604V106.215H108.364V119.604H111.994Z" fill="white"/>
<path d="M118.061 108.813H120.68V106.315H118.061V102.968H114.43V106.315H112.546V108.813H114.43V114.958C114.43 115.707 114.43 116.307 114.476 117.006C114.614 118.955 115.487 119.904 118.198 119.904C118.98 119.904 119.715 119.804 120.45 119.704V117.206C118.612 117.306 118.198 117.006 118.107 115.707C118.107 115.358 118.107 114.908 118.107 114.458V108.813H118.061Z" fill="white"/>
<path d="M123.024 101.019C121.875 101.019 121.094 101.818 121.094 103.017C121.094 104.266 121.875 105.016 123.024 105.016C124.173 105.016 124.954 104.216 124.954 103.017C124.954 101.818 124.173 101.019 123.024 101.019ZM124.816 119.604V106.215H121.186V119.604H124.816Z" fill="white"/>
<path d="M138.925 106.215H134.972L132.169 116.557L129.32 106.215H125.276L130.101 119.604H134.099L138.925 106.215Z" fill="white"/>
<path d="M150 112.66C150 109.063 147.978 105.865 144.026 105.865C140.119 105.865 137.638 108.913 137.638 112.96C137.638 117.706 140.349 119.954 143.796 119.954C146.783 119.954 149.127 118.305 149.77 115.208H146.231C146.002 116.457 145.174 117.206 143.888 117.206C142.509 117.206 141.498 116.457 141.314 113.909H149.954C150 113.459 150 113.01 150 112.66ZM143.888 108.563C145.22 108.563 146.048 109.562 146.231 111.411H141.36C141.682 109.462 142.555 108.563 143.888 108.563Z" fill="white"/>
<defs>
<linearGradient id="paint0_linear_65_99" x1="75.1099" y1="92.4043" x2="75.1099" y2="-0.0197825" gradientUnits="userSpaceOnUse">
<stop stop-color="#068CFC"/>
<stop offset="0.33" stop-color="#32A09E"/>
<stop offset="0.66" stop-color="#71BC6E"/>
<stop offset="1" stop-color="#BCD807"/>
</linearGradient>
<linearGradient id="paint1_linear_65_99" x1="53.7497" y1="92.4041" x2="53.7497" y2="-0.0198287" gradientUnits="userSpaceOnUse">
<stop stop-color="#068CFC"/>
<stop offset="0.33" stop-color="#32A09E"/>
<stop offset="0.66" stop-color="#71BC6E"/>
<stop offset="1" stop-color="#BCD807"/>
</linearGradient>
<linearGradient id="paint2_linear_65_99" x1="53.7497" y1="92.4042" x2="53.7497" y2="-0.0198473" gradientUnits="userSpaceOnUse">
<stop stop-color="#068CFC"/>
<stop offset="0.33" stop-color="#32A09E"/>
<stop offset="0.66" stop-color="#71BC6E"/>
<stop offset="1" stop-color="#BCD807"/>
</linearGradient>
<linearGradient id="paint3_linear_65_99" x1="53.7499" y1="92.4042" x2="53.7499" y2="-0.0195796" gradientUnits="userSpaceOnUse">
<stop stop-color="#068CFC"/>
<stop offset="0.33" stop-color="#32A09E"/>
<stop offset="0.66" stop-color="#71BC6E"/>
<stop offset="1" stop-color="#BCD807"/>
</linearGradient>
<linearGradient id="paint4_linear_65_99" x1="53.7497" y1="92.4043" x2="53.7497" y2="-0.0198677" gradientUnits="userSpaceOnUse">
<stop stop-color="#068CFC"/>
<stop offset="0.33" stop-color="#32A09E"/>
<stop offset="0.66" stop-color="#71BC6E"/>
<stop offset="1" stop-color="#BCD807"/>
</linearGradient>
<linearGradient id="paint5_linear_65_99" x1="75.1029" y1="92.4042" x2="75.1029" y2="-0.0198493" gradientUnits="userSpaceOnUse">
<stop stop-color="#068CFC"/>
<stop offset="0.33" stop-color="#32A09E"/>
<stop offset="0.66" stop-color="#71BC6E"/>
<stop offset="1" stop-color="#BCD807"/>
</linearGradient>
<linearGradient id="paint6_linear_65_99" x1="75.0414" y1="92.4042" x2="75.0414" y2="-0.0198249" gradientUnits="userSpaceOnUse">
<stop stop-color="#068CFC"/>
<stop offset="0.33" stop-color="#32A09E"/>
<stop offset="0.66" stop-color="#71BC6E"/>
<stop offset="1" stop-color="#BCD807"/>
</linearGradient>
</defs>
</svg>
